<svg version="1.1" xmlns="http://www.w3.org/2000/svg" xmlns:xlink="http://www.w3.org/1999/xlink" x="0px" y="0px" viewBox="0 0 1000 1000" enable-background="new 0 0 1000 1000" xml:space="preserve">
<g><g transform="translate(0.000000,511.000000) scale(0.100000,-0.100000)"><path d="M3163.9,4974.7c-24-39.3-28.4-72.1-13.1-148.5c54.6-273,8.7-546-155.1-915.1c-205.3-465.2-257.7-605-294.8-788.4c-43.7-216.2-32.8-530.7,24-720.7c52.4-179.1,255.5-727.2,279.5-757.8c37.1-48,144.1-34.9,170.4,21.8c19.7,41.5,0,113.6-107,412.8c-255.5,701-246.8,888.9,67.7,1603c91.7,205.3,183.5,436.8,203.1,513.2c52.4,185.6,56.8,655.2,8.7,751.3C3303.6,5031.5,3211.9,5046.8,3163.9,4974.7z"/><path d="M4452.4,4981.2c-32.8-37.1-34.9-56.8-10.9-187.8c50.2-294.8-2.2-537.3-231.5-1048.3c-74.3-168.2-159.4-373.5-185.6-458.6c-59-192.2-80.8-537.3-45.9-742.5c26.2-150.7,268.6-847.4,312.3-899.8c39.3-48,146.3-34.9,172.5,21.8c17.5,41.5,0,109.2-100.5,386.6c-152.9,417.1-185.6,554.7-185.6,775.3c0,222.8,41.5,390.9,155.1,648.6c321,729.4,375.6,936.9,329.8,1292.9c-17.5,142-34.9,205.3-63.3,225C4546.3,5033.7,4496.1,5029.3,4452.4,4981.2z"/><path d="M5743.1,4983.4c-32.8-34.9-35-61.2-13.1-216.2c45.9-316.7,0-493.6-305.8-1188.1c-135.4-303.6-176.9-484.8-176.9-764.4c0-249,41.5-428,198.7-849.5c113.6-310.1,163.8-382.2,242.4-351.6c89.5,32.8,83,87.4-48,452.1c-159.4,439-183.5,559.1-170.3,845.2c13.1,244.6,41.5,336.3,288.3,895.4c67.7,155.1,139.8,345.1,159.4,425.9c37.1,157.2,48,508.9,21.8,642.1C5911.2,5014,5817.3,5066.4,5743.1,4983.4z"/><path d="M154.4,1023.9c-56.8-32.8-67.7-139.8-39.3-458.6c61.1-753.5,238-1389,578.7-2083.5c360.3-736,862.7-1386.8,1506.9-1950.2l152.9-135.4h-943.5c-917.3,0-947.8-2.2-989.3-43.7c-24-24-43.7-54.6-43.7-69.9c0-48,198.7-362.5,323.2-511c163.8-194.4,347.3-342.9,543.8-436.8c303.6-146.3,187.8-142,3070.6-135.4L6918-4794l142,50.2c382.2,137.6,683.6,399.7,934.7,812.4c117.9,194.4,126.7,227.1,72.1,281.7c-45.8,45.9-67.7,45.9-995.9,45.9h-952.2l159.4,135.4c222.8,187.8,602.8,578.7,788.4,810.2c148.5,185.6,157.2,192.2,176.9,144.1c45.8-113.5,148.5-255.5,192.2-266.4c26.2-6.6,63.3-4.4,83,6.5c67.7,34.9,65.5,102.6-6.6,211.8c-76.4,120.1-104.8,312.3-59,421.5c37.1,87.4,155,187.8,255.5,218.4c45.9,13.1,264.2,32.8,487,45.9c657.4,35,947.8,104.8,1229.6,290.5c460.8,305.8,605,902,349.4,1432.7c-120.1,244.6-358.2,410.6-690.1,476.1c-211.8,41.5-439,15.3-635.5-69.9c-107-48-122.3-50.2-113.5-17.5c24,78.6,54.6,685.8,34.9,733.8c-10.9,28.4-34.9,56.8-54.6,65.5C8252.4,1058.9,195.9,1048,154.4,1023.9z M8156.3,665.8c-43.7-1026.4-469.6-2153.4-1144.4-3040c-347.2-458.6-932.5-1026.5-1196.8-1166.2l-98.3-52.4l-1428.3-6.6c-1212.1-4.4-1445.8,0-1539.7,26.2c-142,41.5-395.3,242.4-733.8,580.9C1143.7-2120.9,591.2-1070.4,390.3,98c-41.5,233.7-83,685.8-65.5,712c6.5,10.9,1745,17.5,3924.5,15.3l3913.6-6.6L8156.3,665.8z M9025.5,130.7c251.2-48,469.5-200.9,570-397.5c242.4-473.9,59-984.9-441.1-1216.5c-211.8-100.4-369.1-133.2-751.3-157.2c-192.2-10.9-425.9-28.4-517.6-37.1c-93.9-8.7-170.3-15.3-170.3-13.1c0,0,52.4,113.6,117.9,251.2c155,327.6,257.7,609.3,360.4,985c72.1,257.7,96.1,316.7,159.4,382.2c98.3,102.6,183.4,152.9,325.4,190C8822.4,156.9,8877,159.1,9025.5,130.7z M7789.4-3848.4c-183.5-314.5-443.3-546-746.9-668.3l-146.3-59H4242.7H1589.2l-142,54.6c-192.2,76.4-366.9,194.4-511,351.6c-113.6,122.3-253.3,307.9-253.3,334.2c0,6.6,1603,13.1,3562,13.1C7086.2-3822.2,7802.5-3828.7,7789.4-3848.4z"/></g></g>
</svg>
