<svg version="1.1" xmlns="http://www.w3.org/2000/svg" xmlns:xlink="http://www.w3.org/1999/xlink" x="0px" y="0px" viewBox="0 0 1000 1000" enable-background="new 0 0 1000 1000" xml:space="preserve">
<g><g transform="translate(0.000000,511.000000) scale(0.100000,-0.100000)"><path d="M2805.3,4310.2c-162.7-82.3-216.4-224-174.2-459.5c13.4-76.6,13.4-76.6-70.8-111c-91.9-38.3-191.5-137.9-231.7-233.6c-19.1-46-44-65.1-101.5-84.2C2125.6,3393,2049,3326,2005,3230.3c-42.1-97.7-82.3-101.5-212.5-17.2c-258.5,164.7-405.9,189.6-584,95.7c-139.8-72.8-208.7-187.6-264.2-444.2c-46-222.1-84.2-294.9-143.6-279.6c-254.7,70.8-388.7,53.6-511.2-61.3C92.2,2338,40.5,1713.8,174.6,1160.5c21.1-78.5,42.1-216.4,47.9-304.4C264.5,323.8,450.3-315.7,724.1-869.1c302.5-605.1,723.7-1146.9,1223.5-1566.2l172.3-145.5l11.5-210.6c13.4-273.8,63.2-382.9,254.6-578.2c354.2-358.1,978.4-616.5,1763.4-727.6c352.3-51.7,1279-51.7,1598.8-1.9c811.8,126.4,1476.2,407.8,1832.3,773.5c174.2,180,224,292.9,235.5,543.8l9.6,203l174.2,145.5c1012.9,848.2,1639,2100.4,1742.4,3479c7.7,109.1,36.4,239.3,86.2,396.3c84.3,264.2,91.9,360,34.5,484.4c-49.8,111-97.7,160.8-231.7,241.3c-116.8,72.8-116.8,72.8-149.3,256.6c-30.6,170.4-57.4,227.8-149.4,310.2c-97.6,88.1-160.8,99.6-432.7,84.2l-212.5-13.4l-49.8,53.6c-26.8,28.7-72.8,91.9-105.3,137.9c-30.7,47.9-93.8,109.1-139.8,137.9c-46,30.6-124.5,91.9-174.2,139.8c-82.3,78.5-93.8,99.6-113,210.6c-44.1,250.8-97.6,344.6-239.3,417.4c-153.2,78.5-346.6,44-505.5-90l-59.3-49.8l-101.5,78.5c-124.5,99.6-333.1,206.8-434.6,222.1c-225.9,36.4-361.9-82.3-430.8-375.3c-11.5-42.1-82.3-107.2-214.4-191.5c-38.3-24.9-51.7-23-111.1,3.8c-122.5,59.3-176.2,199.1-145.5,384.8c28.7,180-26.8,302.5-178.1,382.9c-68.9,36.4-111.1,42.1-281.4,42.1c-354.2,0-515.1-80.4-737.2-367.6c-183.8-239.3-180-237.4-315.9-130.2c-180,139.8-312.1,201-434.6,201c-55.5,0-128.3-13.4-158.9-28.7c-53.6-26.8-55.5-26.8-95.7,38.3c-57.4,93.8-187.6,203-319.8,268.1c-90,44-141.7,55.5-273.8,63.2C2922.1,4360,2895.3,4356.1,2805.3,4310.2z M3190.2,4024.9c91.9-38.3,212.5-153.2,256.6-243.2c38.3-78.5,38.3-78.5,1.9-185.7c-21.1-61.3-46-203-57.4-319.8c-9.6-114.9-36.4-344.6-59.4-511.2l-42.1-298.7l-59.4-28.7c-53.6-24.9-65.1-24.9-158.9,17.2c-53.6,23-99.6,49.8-99.6,55.5c0,5.7,17.2,65.1,40.2,130.2c74.7,220.2,5.7,373.4-214.4,478.7c-120.6,57.4-128.3,67-160.8,160.8c-34.5,97.6-34.5,103.4,0,139.8c49.8,55.5,82.3,47.9,191.5-38.3c109.1-86.2,172.3-95.7,247-36.4c72.8,57.4,63.2,124.5-44,338.9c-90,180-130.2,310.2-107.2,348.5C2941.3,4061.3,3117.4,4055.5,3190.2,4024.9z M5535.7,3996.2c19.2-11.5,23-44,11.5-128.3c-28.7-262.3,103.4-530.4,315.9-639.5c42.1-21.1,126.4-44,187.6-49.8c124.5-13.4,185.8,7.7,319.8,116.8c153.2,124.5,189.6,126.4,212.5,19.1c9.6-57.4,9.6-57.4-124.5-91.9c-340.8-88.1-614.6-423.1-614.6-750.6v-82.3l-113-7.7c-139.8-9.6-225.9-63.2-321.7-201c-38.3-55.5-76.6-101.5-86.2-101.5c-9.6,0-122.5,13.4-250.8,30.6c-174.2,21.1-264.2,24.9-337,11.5c-93.8-17.2-103.4-15.3-113,19.2c-23,91.9-158.9,344.6-224,413.6c-149.3,168.5-312.1,195.3-593.6,99.6c-93.8-30.6-172.3-53.6-176.2-49.8c-3.8,3.8,5.7,105.3,21.1,224c15.3,120.6,38.3,312.1,47.9,427c30.6,323.6,120.6,478.7,256.6,444.2c24.9-5.7,101.5-51.7,166.6-101.5c231.7-178.1,250.8-187.6,333.2-185.7c149.4,3.8,266.1,91.9,455.7,342.7c116.8,153.2,151.3,181.9,268,222.1C5282.9,4013.4,5489.7,4024.9,5535.7,3996.2z M6835.8,3718.5c49.8-26.8,157-103.4,241.3-172.3c195.3-164.7,252.7-164.7,438.4-1.9c72.8,63.2,114.9,86.2,158.9,86.2c78.5,0,95.7-23,122.5-172.3c28.7-174.2,53.6-241.3,107.2-304.4l46-55.5l-68.9-111.1c-36.4-63.2-80.4-162.8-97.7-224c-34.4-120.6-107.2-203-189.5-208.7c-24.9-1.9-59.4-3.8-76.6-3.8c-21.1-1.9-42.1,32.5-65.1,107.2c-68.9,224-220.2,402.1-434.7,511.2c-112.9,55.5-114.9,59.4-128.3,149.4c-23,174.2-91.9,283.4-237.4,379.1c-1.9,1.9,0,19.2,7.7,36.4C6676.9,3776,6730.4,3772.1,6835.8,3718.5z M2399.4,3042.6c40.2-80.4,63.2-99.6,183.8-158.9c74.7-36.4,141.7-72.8,147.4-78.5c5.7-5.7-5.7-61.3-28.7-124.5c-84.2-241.3-19.2-382.9,231.7-499.7l151.3-70.8l-38.3-70.8c-74.7-149.3-28.7-279.6,141.7-394.4c47.9-32.5,97.7-63.2,107.2-67c15.3-5.7-38.3-260.4-65.1-302.5c-13.4-21.1-128.3-24.9-193.4-7.7c-30.6,7.7-42.1,36.4-61.3,145.5c-103.4,601.2-765.9,911.4-1290.5,603.1c-103.4-61.3-266.1-231.7-319.7-335.1c-256.6-503.6,13.4-1095.2,566.8-1238.8c59.3-15.3,151.3-28.7,201-28.7c88.1,0,95.7-5.7,229.8-139.8c145.5-143.6,352.3-277.6,608.9-392.5c137.9-61.3,139.8-63.2,57.4-51.7c-47.9,7.7-220.2,42.1-382.9,80.4C1874.8,84.4,1181.7,388.9,837,704.8C701.1,829.3,549.8,1020.7,502,1127.9c-105.3,239.3-126.4,907.6-36.4,1127.8c28.7,70.8,70.8,80.4,204.9,44c201-51.7,260.4-42.1,365.7,57.4c109.1,101.5,158.9,206.8,208.7,434.6c61.3,285.3,124.5,323.6,325.5,193.4c168.5-107.2,252.7-139.8,367.6-139.8c135.9,0,241.3,57.4,296.8,162.8c59.4,114.9,67,124.5,95.7,124.5C2343.9,3132.6,2374.5,3092.4,2399.4,3042.6z M6839.6,2912.4c241.3-84.2,384.8-352.3,325.5-601.2c-26.8-111.1-101.5-224-201-298.7l-68.9-53.6l-42.1,40.2c-55.5,51.7-319.7,178.1-532.3,254.7l-170.4,61.3v116.8C6150.3,2784.2,6504.5,3031.2,6839.6,2912.4z M8300.5,2793.7c101.5-147.4,168.5-216.4,248.9-258.5c70.9-36.4,97.7-38.3,333.2-24.9l254.7,13.4l17.2-44c7.6-24.9,26.8-105.3,38.3-180c30.6-178.1,91.9-277.6,216.3-356.1c141.7-88.1,187.7-132.1,187.7-181.9c0-24.9-38.3-155.1-84.2-292.9c-101.5-298.7-291-656.7-404-767.8l-82.4-80.4l-21.1,97.7c-11.5,55.5-34.5,126.4-51.7,157c-21.1,42.1-26.8,86.2-17.2,157c15.3,126.4-38.3,338.9-139.8,555.3c-86.2,183.8-170.4,285.3-279.5,344.6c-78.5,40.2-97.6,42.1-398.3,28.7c-34.4,0-118.7,23-187.6,53.6c-109.2,47.9-147.5,53.6-321.7,55.5c-187.6,0-197.2,1.9-185.7,38.3c7.7,21.1,17.2,57.4,23,80.4c7.7,34.5,26.8,44,118.7,53.6c289.1,32.6,423.1,149.3,518.9,451.9c36.4,120.6,84.3,189.6,128.3,189.6C8225.9,2883.7,8266.1,2843.5,8300.5,2793.7z M4159,2366.8c45.9-46,139.8-229.8,181.9-356.1l30.6-95.7l-57.4-111c-32.6-61.3-59.4-126.4-59.4-143.6c0-23-57.4-61.3-185.7-122.5c-103.4-49.8-201-90-220.2-90c-17.2,0-82.3,55.5-143.6,122.5c-95.7,103.4-126.4,158.9-202.9,350.4c-49.8,124.5-90,235.5-90,248.9c0,11.5,91.9,53.6,206.8,93.8c113,38.3,243.2,86.2,291,105.3C4025,2414.6,4111.2,2414.6,4159,2366.8z M6113.9,2003c202.9-68.9,524.6-214.5,576.3-262.3c30.6-26.8,30.6-34.5,7.7-61.3c-47.9-53.6-68.9-132.1-49.8-183.8c21.1-57.4,111-105.3,195.3-105.3c141.7,0,214.5-111,212.5-327.4c0-183.8-47.9-292.9-227.8-528.5c-143.6-187.6-172.3-247-201-404c-36.4-195.3-103.4-289.1-243.2-337c-82.3-28.7-367.6-63.2-367.6-44c0,5.7,30.6,53.6,67,109.1c187.6,277.6,191.5,696.9,11.5,980.3c-191.5,302.5-566.7,474.8-909.5,419.3c-170.4-28.7-348.5-109.1-457.6-210.6l-86.2-78.5l-44,157c-86.2,314-65.1,528.4,61.3,635.7c80.4,68.9,155.1,76.6,400.2,42.1c252.7-34.5,407.8-38.3,461.4-11.5c19.1,11.5,59.3,65.1,86.2,120.6c80.4,160.8,95.7,172.3,220.2,160.8C5884.2,2070,6014.4,2037.4,6113.9,2003z M2372.6,1777c134-68.9,241.2-193.4,281.5-323.6c13.4-42.1,11.5-42.1-109.1-30.6c-287.2,26.8-461.4-126.4-463.4-405.9c0-72.8,7.7-170.4,15.3-216.4l17.2-82.3l-74.7,13.4c-122.5,23-231.7,84.2-319.7,181.9c-268.1,298.7-151.3,748.6,231.7,890.3C2054.8,1842.1,2271.1,1828.7,2372.6,1777z M7538.5,1734.9c-114.9-51.7-183.8-134-195.3-235.5c-11.5-97.7,19.1-168.5,287.2-645.3c183.8-325.5,258.5-409.7,386.8-436.5c122.5-26.8,241.2,5.7,490.2,130.2c107.2,53.6,197.2,93.8,201,90c3.8-3.8,15.3-47.9,24.9-97.7c15.3-84.2,13.4-90-36.4-126.4C8507.3,277.8,7795,21.3,7299.1-89.8c-432.7-97.7-448-99.6-432.7-57.4c13.4,34.5,59.3,206.8,78.5,292.9c3.8,26.8,70.8,130.2,145.5,229.8c176.1,233.6,241.2,371.5,266.2,564.8c34.4,266.1-40.2,518.9-187.7,641.4l-68.9,55.5l88.1,40.2c116.8,51.7,277.6,93.8,360,93.8h67L7538.5,1734.9z M8403.9,1631.5c103.4-86.2,250.8-474.8,224-589.7c-5.8-28.7-38.3-76.6-70.9-103.4c-72.7-61.3-398.2-218.3-453.8-218.3c-23,0-55.5,26.8-82.4,72.8c-76.6,120.6-358,635.7-358,652.9c0,9.6,15.3,21.1,34.4,26.8c17.2,5.7,157,53.6,310.2,107.2c153.2,53.6,292.9,97.7,310.2,97.7C8335,1677.5,8375.2,1656.4,8403.9,1631.5z M3848.8,1150.9c105.3,0,153.2,11.5,260.4,63.2c70.8,32.6,132.1,61.3,135.9,61.3s11.5-28.7,17.2-65.1c7.7-36.4,42.1-170.4,80.4-300.6c61.3-212.5,68.9-260.4,67-453.8c-1.9-118.7,7.7-254.7,17.2-304.4c30.6-128.3,113-287.2,206.8-392.5l84.3-91.9l-141.7,1.9c-76.6,1.9-222.1,7.7-321.7,15.3c-172.3,11.5-185.7,15.3-275.7,84.3c-132.1,103.4-306.4,185.7-605,291c-394.4,137.9-652.9,281.5-808,446.1c-93.8,101.5-158.9,258.5-180,446.1c-23,195.3,61.3,214.4,398.3,84.2c203-78.5,367.6-101.5,494-67c103.4,28.7,243.2,158.9,260.4,245.1l11.5,57.4l86.2-59.3C3711,1158.6,3737.8,1150.9,3848.8,1150.9z M5562.5,905.8c218.3-99.6,338.9-270,354.2-499.7c9.6-160.8-13.4-258.5-90-379.1c-114.9-181.9-361.9-300.6-568.7-273.8c-310.2,38.3-543.8,298.7-543.8,603.1C4714.3,792.9,5168.1,1087.7,5562.5,905.8z M1105.1,145.7c695-384.9,1602.6-622.3,2862.5-750.6c327.4-32.5,1646.6-32.5,2000.9,0C7437-465.1,8524.5-131.9,9208.1,387c132.1,103.4,158.9,116.8,151.3,80.4c-206.8-984.2-637.6-1780.7-1325-2450.8c-356.2-348.5-691.2-585.9-1139.2-808c-1470.5-731.4-3205.2-568.7-4543.6,425.1c-231.7,172.3-612.7,539.9-806.1,779.3C1114.7-1056.7,770-352.1,626.4,289.3C611.1,364,592,442.5,588.1,467.4c-9.6,34.5,21.1,19.1,162.7-88.1C846.6,306.5,1005.5,201.2,1105.1,145.7z M2640.7-2925.5c442.3-266.1,1081.8-490.2,1652.4-580.1c310.2-47.9,1049.2-47.9,1359.4,0c277.6,44,670.1,143.6,911.4,233.6c224,82.3,635.7,279.5,811.8,388.7c122.5,74.7,124.5,76.6,130.2,32.6c19.2-147.4-273.8-425.1-645.2-612.7c-271.9-135.9-702.7-264.2-1116.3-329.3c-314-49.8-1248.4-49.8-1575.8,1.9C3487-3685.6,2893.4-3452,2612-3180.1c-93.8,91.9-176.2,243.2-176.2,325.5c0,53.6,1.9,55.5,44,28.7C2502.8-2841.2,2575.6-2885.2,2640.7-2925.5z"/></g></g>
</svg>
