<?xml version="1.0" encoding="UTF-8" standalone="no"?><!DOCTYPE svg PUBLIC "-//W3C//DTD SVG 1.1//EN" "http://www.w3.org/Graphics/SVG/1.1/DTD/svg11.dtd"><svg width="100%" height="100%" viewBox="0 0 1000 1000" version="1.1" xmlns="http://www.w3.org/2000/svg" xmlns:xlink="http://www.w3.org/1999/xlink" xml:space="preserve" style="fill-rule:evenodd;clip-rule:evenodd;stroke-linejoin:round;stroke-miterlimit:1.41421;"><g><path d="M335.99,13.77c-22.62,7.74 -37.49,23.21 -43.45,45.23c-8.33,31.15 7.14,63.88 34.72,72.81c4.96,1.59 26.19,5.36 46.82,8.33c20.83,2.98 37.89,5.55 38.29,5.75c0.4,0.4 -2.98,14.68 -7.54,32.14c-10.72,40.47 -32.93,108.71 -57.73,175.76c-10.91,29.36 -19.64,55.55 -19.64,58.13c0,6.15 6.75,9.92 12.9,7.14c3.57,-1.59 8.13,-12.1 22.81,-51.38c30.15,-80.94 50.98,-145.61 67.45,-210.48c1.19,-4.56 3.37,-8.33 4.76,-8.33c1.59,0 65.66,7.54 142.44,16.86c76.97,9.32 144.42,16.86 149.78,16.86c28.77,0 48.4,-18.25 48.4,-45.23c0.2,-13.89 -3.97,-24.6 -10.91,-29.16c-4.76,-3.17 -5.55,-3.17 -10.12,-0.2c-5.95,3.97 -6.15,6.94 -0.99,16.47c2.18,4.17 3.97,9.92 3.97,13.09c0,14.28 -13.69,25.99 -29.95,25.79c-19.44,-0.2 -33.72,-15.47 -35.11,-37.1c-0.99,-14.88 3.17,-24.4 15.08,-35.31c11.7,-10.51 23.21,-14.28 40.87,-13.09c23.21,1.59 39.67,13.49 50.19,36.5c8.13,17.66 7.94,30.95 -0.4,68.24c-14.68,66.06 -30.55,119.62 -66.06,224.17c-54.57,160.49 -58.34,173.58 -61.91,206.72c-2.38,23.8 -2.58,180.92 -0.2,242.62c0.79,23.01 1.39,41.86 1.19,42.25c-0.2,0.2 -29.16,-3.77 -64.28,-8.73l-64.08,-9.33l-3.97,4.17c-4.56,4.36 -3.77,13.09 1.19,14.88c1.59,0.59 34.52,5.75 73.2,11.31l70.42,10.12l131.53,-61.5c159.5,-74.19 146.21,-67.65 147.4,-71.02c3.17,-7.94 -22.22,-309.87 -35.71,-426.12c-15.08,-129.94 -25.99,-184.69 -44.64,-221.79c-24.8,-49.4 -59.71,-72.21 -124.78,-81.53c-67.05,-9.72 -386.25,-48.8 -397.95,-48.8c-7.92,0.19 -18.04,1.58 -23.99,3.76Zm193.82,35.91c87.88,10.91 161.68,20.43 164.26,21.03c4.36,0.99 4.36,1.39 -4.37,10.91c-4.96,5.55 -10.31,14.28 -12.5,20.23c-4.76,14.09 -4.37,35.31 0.99,47.41l4.17,9.32l-5.36,-0.99c-2.98,-0.4 -61.3,-7.54 -129.74,-15.67c-125.38,-15.08 -200.36,-25.19 -214.05,-28.77c-14.48,-3.97 -26.98,-26.78 -24.2,-44.04c3.57,-22.81 31.54,-43.05 55.15,-40.07c3.37,0.4 77.76,9.73 165.65,20.64Zm294.19,50.38c21.42,13.49 40.67,41.26 51.78,74.59c18.45,55.55 39.08,223.77 58.52,476.11c5.36,67.65 8.73,120.42 8.53,125.78c0,0.99 -56.14,27.97 -124.78,59.91c-103.95,48.41 -124.78,57.33 -125.77,54.75c-3.97,-10.51 -5.36,-241.43 -1.79,-274.96c3.17,-29.56 6.15,-40.07 41.07,-144.02c55.35,-163.66 72.61,-221 87.09,-287.45c9.52,-44.04 8.73,-54.16 -6.55,-89.07c-1.59,-3.77 0.8,-2.97 11.9,4.36Z" style="fill-rule:nonzero;stroke:#000;stroke-width:15px;"/><path d="M197.52,391.68c-32.34,7.54 -43.45,16.86 -32.14,26.98c11.51,10.51 13.89,14.08 22.22,30.95c9.92,20.43 25,38.48 37.49,44.83c11.51,5.95 34.12,7.14 46.02,2.58c11.51,-4.36 21.62,-13.29 26.98,-23.61c6.35,-12.1 5.95,-30.75 -0.99,-44.04c-6.94,-13.49 -24.4,-29.16 -38.68,-34.72c-14.28,-5.35 -43.84,-6.93 -60.9,-2.97Zm58.12,23.81c14.08,7.14 25.59,19.04 27.38,27.77c3.77,20.24 -10.71,38.88 -30.15,38.88c-18.05,0 -35.31,-15.47 -48.6,-43.45c-4.56,-9.32 -9.52,-18.65 -11.11,-20.43c-2.78,-3.17 -2.78,-3.57 0.4,-4.76c9.13,-3.57 17.26,-4.56 33.73,-3.97c14.86,0.41 19.63,1.4 28.35,5.96Z" style="fill-rule:nonzero;stroke:#000;stroke-width:15px;"/><path d="M363.37,445.64c-26.39,7.14 -49.99,25.99 -61.3,48.8c-7.14,14.68 -12.3,34.32 -12.3,47.61c0,5.36 -0.59,9.52 -1.19,9.52c-0.59,0 -3.97,-2.18 -7.34,-4.76c-9.13,-6.94 -33.92,-18.45 -49,-22.42c-9.52,-2.58 -20.04,-3.57 -39.68,-3.37c-25,0 -27.97,0.4 -46.02,6.55c-33.33,11.51 -65.27,34.33 -83.92,60.51c-26.98,37.89 -32.93,92.05 -17.85,163.86c16.66,78.56 42.25,129.34 91.25,180.33c22.02,23.01 38.88,35.91 59.51,45.83c19.24,9.32 31.54,11.9 54.36,11.9c19.84,0 31.35,-3.17 41.86,-11.7l7.14,-5.55l6.75,5.55c11.31,9.52 23.21,12.3 48.4,11.31c15.67,-0.79 25.79,-2.18 34.92,-5.36c36.5,-12.7 73,-44.63 110.1,-96.41c17.06,-23.61 26.58,-43.45 38.68,-79.35c28.97,-87.48 31.54,-155.93 7.34,-205.13c-7.34,-14.88 -30.35,-40.27 -47.81,-52.77c-54.16,-38.29 -122.4,-40.87 -176.16,-6.35l-11.51,7.34l0,-9.52c0,-21.03 10.51,-46.62 24.2,-58.92c12.9,-11.7 27.18,-17.46 53.76,-21.82c8.93,-1.39 13.09,-7.74 9.52,-14.68c-1.98,-3.37 -4.17,-4.17 -12.7,-3.97c-5.74,0 -15.06,1.39 -21.01,2.97Zm-137.68,98c29.16,6.94 52.57,21.03 63.28,38.09c6.74,10.51 13.09,9.92 21.62,-2.38c15.67,-22.62 56.54,-39.48 95.42,-39.68c60.7,0 120.62,46.82 132.72,104.15c6.55,30.95 2.58,80.94 -9.92,126.57c-13.49,49.6 -27.18,80.34 -49.4,111.29c-43.25,60.31 -85.7,88.88 -132.12,89.07c-17.66,0 -23.41,-2.38 -35.11,-15.28c-10.71,-11.7 -15.67,-11.9 -25.19,-0.99c-3.77,4.56 -8.73,9.52 -11.11,11.11c-10.32,7.34 -43.05,6.55 -64.67,-1.59c-37.69,-14.09 -89.27,-68.05 -114.86,-119.82c-17.66,-35.71 -33.33,-89.67 -38.68,-131.92c-5.95,-49.6 2.58,-89.67 25.59,-118.63c17.46,-22.02 51.98,-44.44 78.76,-50.79c17.25,-4.16 44.43,-3.76 63.67,0.8Z" style="fill-rule:nonzero;stroke:#000;stroke-width:15px;"/></g></svg>