<svg version="1.1" xmlns="http://www.w3.org/2000/svg" xmlns:xlink="http://www.w3.org/1999/xlink" x="0px" y="0px" viewBox="0 0 1000 1000" enable-background="new 0 0 1000 1000" xml:space="preserve">
<g><g transform="translate(0.000000,511.000000) scale(0.100000,-0.100000)"><path d="M3359.9,4972.3c-226.2-77.4-374.9-232.1-434.5-452.3c-83.3-311.5,71.4-638.8,347.2-728.1c49.6-15.9,261.9-53.6,468.2-83.3c208.3-29.8,378.9-55.5,382.9-57.5c4-4-29.8-146.8-75.4-321.4C3941.1,2925,3719,2242.6,3471,1572.1c-109.1-293.6-196.4-555.5-196.4-581.3c0-61.5,67.5-99.2,129-71.4c35.7,15.9,81.3,121,228.1,513.8c301.5,809.4,509.8,1456.1,674.5,2104.8c11.9,45.6,33.7,83.3,47.6,83.3c15.9,0,656.6-75.4,1424.4-168.6c769.7-93.2,1444.2-168.6,1497.8-168.6c287.7,0,484,182.5,484,452.3c2,138.9-39.7,246-109.1,291.6c-47.6,31.7-55.5,31.7-101.2,2c-59.5-39.7-61.5-69.4-9.9-164.7c21.8-41.7,39.7-99.2,39.7-130.9c0-142.8-136.9-259.9-299.5-257.9c-194.4,2-337.2,154.7-351.1,371c-9.9,148.8,31.7,244,150.8,353.1c117,105.1,232.1,142.8,408.7,130.9c232.1-15.9,396.7-134.9,501.9-365c81.3-176.6,79.4-309.5-4-682.4c-146.8-660.6-305.5-1196.2-660.6-2241.7C6780-562.5,6742.3-693.4,6706.6-1024.8c-23.8-238-25.8-1809.2-2-2426.2c7.9-230.1,13.9-418.6,11.9-422.5c-2-2-291.6,37.7-642.8,87.3l-640.8,93.3l-39.7-41.7c-45.6-43.6-37.7-130.9,11.9-148.8c15.9-5.9,345.2-57.5,732-113.1l704.2-101.2l1315.3,615c1595,741.9,1462.1,676.5,1474,710.2c31.7,79.4-222.2,3098.7-357.1,4261.2c-150.8,1299.4-259.9,1846.9-446.4,2217.9c-248,494-597.1,722.1-1247.8,815.3c-670.5,97.2-3862.5,488-3979.5,488C3520.6,5008,3419.4,4994.1,3359.9,4972.3z M5298.1,4613.2c878.8-109.1,1616.8-204.3,1642.6-210.3c43.6-9.9,43.6-13.9-43.7-109.1c-49.6-55.5-103.1-142.8-125-202.3c-47.6-140.9-43.7-353.1,9.9-474.1l41.7-93.2l-53.6,9.9c-29.8,4-613,75.4-1297.4,156.7c-1253.8,150.8-2003.6,251.9-2140.5,287.7c-144.8,39.7-269.8,267.8-242,440.4c35.7,228.1,315.4,430.5,551.5,400.7C3675.3,4815.6,4419.2,4722.3,5298.1,4613.2z M8240,4109.4c214.2-134.9,406.7-412.6,517.8-745.9c184.5-555.5,390.8-2237.7,585.2-4761.1c53.6-676.5,87.3-1204.2,85.3-1257.8c0-9.9-561.4-279.7-1247.8-599.1c-1039.5-484.1-1247.8-573.3-1257.7-547.5c-39.7,105.1-53.6,2414.3-17.9,2749.6c31.7,295.6,61.5,400.7,410.7,1440.2c553.5,1636.6,726.1,2210,870.9,2874.5c95.2,440.4,87.3,541.6-65.5,890.7C8105.1,4190.7,8129,4182.7,8240,4109.4z"/><path d="M1975.2,1193.2c-323.4-75.4-434.5-168.6-321.4-269.8c115.1-105.1,138.9-140.8,222.2-309.5c99.2-204.3,250-384.8,374.9-448.3c115.1-59.5,341.2-71.4,460.2-25.8c115.1,43.6,216.2,132.9,269.8,236.1c63.5,121,59.5,307.5-9.9,440.4c-69.4,134.9-244,291.6-386.8,347.2C2441.4,1217,2145.8,1232.8,1975.2,1193.2z M2556.4,955.1c140.8-71.4,255.9-190.4,273.8-277.7c37.7-202.4-107.1-388.8-301.5-388.8c-180.5,0-353.1,154.7-486,434.5c-45.6,93.2-95.2,186.5-111.1,204.3c-27.8,31.7-27.8,35.7,4,47.6c91.3,35.7,172.6,45.6,337.3,39.7C2421.5,1010.6,2469.2,1000.7,2556.4,955.1z"/><path d="M3633.7,653.6c-263.9-71.4-499.9-259.9-613-488c-71.4-146.8-123-343.2-123-476.1c0-53.6-5.9-95.2-11.9-95.2c-5.9,0-39.7,21.8-73.4,47.6c-91.3,69.4-339.2,184.5-490,224.2c-95.2,25.8-200.4,35.7-396.8,33.7c-250,0-279.7-4-460.2-65.5C1132.1-280.8,812.7-509,626.2-770.8c-269.8-378.9-329.3-920.5-178.5-1638.6c166.6-785.6,422.5-1293.4,912.5-1803.3c220.2-230.1,388.8-359.1,595.1-458.3c192.4-93.2,315.4-119,543.6-119c198.4,0,313.5,31.7,418.6,117l71.4,55.5l67.5-55.5c113.1-95.2,232.1-123,484-113.1c156.7,7.9,257.9,21.8,349.2,53.6c365,127,730,446.3,1101,964.1c170.6,236.1,265.8,434.5,386.8,793.5c289.7,874.8,315.4,1559.3,73.4,2051.3c-73.4,148.8-303.5,402.7-478.1,527.7C4431.1-13,3748.7,12.8,3211.1-332.4L3096-405.8v95.2c0,210.3,105.1,466.2,242,589.2c129,117,271.8,174.6,537.6,218.2c89.3,13.9,130.9,77.4,95.2,146.8c-19.8,33.7-41.7,41.7-127,39.7C3786.4,683.3,3693.2,669.4,3633.7,653.6z M2256.9-326.4c291.6-69.4,525.7-210.3,632.8-380.9c67.4-105.1,130.9-99.2,216.2,23.8c156.7,226.2,565.4,394.8,954.2,396.8c607,0,1206.2-468.2,1327.2-1041.5c65.5-309.5,25.8-809.4-99.2-1265.7c-134.9-496-271.8-803.4-494-1112.9c-432.5-603.1-857-888.8-1321.2-890.7c-176.6,0-234.1,23.8-351.1,152.8c-107.1,117-156.7,119-251.9,9.9c-37.7-45.6-87.3-95.2-111.1-111.1c-103.2-73.4-430.5-65.5-646.7,15.9c-376.9,140.9-892.7,680.5-1148.6,1198.2c-176.6,357.1-333.3,896.7-386.8,1319.2c-59.5,496,25.8,896.7,255.9,1186.3c174.6,220.2,519.8,444.4,787.6,507.9C1792.7-276.8,2064.5-280.8,2256.9-326.4z"/></g></g>
</svg>
