<svg version="1.1" xmlns="http://www.w3.org/2000/svg" xmlns:xlink="http://www.w3.org/1999/xlink" x="0px" y="0px" viewBox="0 0 1000 1000" enable-background="new 0 0 1000 1000" xml:space="preserve">
<g><g transform="translate(0.000000,511.000000) scale(0.100000,-0.100000)"><path d="M4802.1,4985.1c-293.6-58.7-564.2-273.1-699.5-559.1l-79.1-165.9l-7.7-4523.8l-5.1-4526.3h1825.3h1825.3v2450.8V111.6h339.5c186.4,0,408.5,12.8,492.7,28.1c314,56.2,587.2,268.1,719.9,554l68.9,145.5v1110.5v1110.5l-68.9,145.5c-130.2,278.3-398.2,490.1-704.6,554c-74,15.3-293.6,28.1-487.6,28.1h-354.8l-10.2,250.2c-7.7,199.1-22.9,275.7-76.6,393.2c-127.6,278.2-398.2,490.1-704.6,554C6714.3,5018.3,4975.7,5018.3,4802.1,4985.1z M6936.4,4556.2c125.1-58.7,273.2-224.6,311.5-357.4c17.9-53.6,30.6-168.5,30.6-255.3v-155.7H5836.1H4393.7v135.3c0,288.5,125.1,523.3,337,628c107.2,51.1,143,53.6,1105.4,53.6C6747.5,4604.7,6839.4,4599.6,6936.4,4556.2z M7278.5,3175.1v-204.2H5836.1H4393.7v204.2v204.2h1442.4h1442.4V3175.1z M8570.2,3330.8c125.1-58.7,273.2-224.6,311.5-357.4c43.4-135.3,43.4-1912.1,0-2047.4c-38.3-132.7-186.4-298.7-311.5-357.4c-86.8-40.8-171-48.5-505.5-48.5h-403.4v1429.6v1429.6h403.4C8399.2,3379.3,8483.5,3371.7,8570.2,3330.8z M7278.5-501.1v-3063.5H5836.1H4393.7v3063.5v3063.5h1442.4h1442.4V-501.1z M7278.5-4177.3v-204.2H5836.1H4393.7v204.2v204.2h1442.4h1442.4V-4177.3z"/><path d="M1649.3,63.1c-40.9-25.5-191.5-163.4-331.9-306.3l-255.3-257.8l204.2-204.2L1468-907L1309.8-1073c-155.7-160.8-183.8-227.2-143-334.4c23-58.7,153.2-117.5,222.1-102.1c33.2,10.2,191.5,148.1,352.3,308.9l291,291L1828-705.3l-201.7,201.7l158.3,165.9C1914.8-202.4,1942.9-159,1942.9-85C1942.9,70.7,1784.6,149.9,1649.3,63.1z"/><path d="M2466.2,63.1c-40.8-25.5-191.5-163.4-331.9-306.3l-255.3-257.8l204.2-204.2L2285-907L2126.7-1073c-155.7-160.8-183.8-227.2-143-334.4c23-58.7,153.2-117.5,222.1-102.1c33.2,10.2,191.5,148.1,352.3,308.9l291,291l-204.2,204.2l-201.7,201.7l158.3,165.9C2731.7-202.4,2759.8-159,2759.8-85C2759.8,70.7,2601.5,149.9,2466.2,63.1z"/><path d="M717.5-1969c0-23,104.7-658.7,229.8-1416.9c127.6-758.2,229.8-1383.7,229.8-1391.3c0-7.7,349.8-12.8,778.6-12.8h778.6l12.8,56.2c40.8,181.3,462.1,2780.1,451.9,2790.3c-7.7,7.7-569.3,12.8-1248.4,12.8C860.4-1930.7,717.5-1935.8,717.5-1969z M2734.3-2380.1c0-38.3-296.1-1840.6-319.1-1942.8c-12.8-58.7-17.9-58.7-459.5-58.7c-245.1,0-446.8,7.7-446.8,15.3c0,23-178.7,1087.6-191.5,1151.4c-12.8,58.7-12.8,58.7,413.6,63.8l428.9,7.7v191.5v191.5l-462.1,7.7l-462.1,5.1l-17.9,132.8c-10.2,71.5-25.5,163.4-33.2,201.7l-12.8,74h781.2C2642.4-2339.2,2734.3-2344.3,2734.3-2380.1z"/></g></g>
</svg>
