<?xml version="1.0" encoding="UTF-8" standalone="no"?><!DOCTYPE svg PUBLIC "-//W3C//DTD SVG 1.1//EN" "http://www.w3.org/Graphics/SVG/1.1/DTD/svg11.dtd"><svg width="100%" height="100%" viewBox="0 0 1000 1000" version="1.1" xmlns="http://www.w3.org/2000/svg" xmlns:xlink="http://www.w3.org/1999/xlink" xml:space="preserve" style="fill-rule:evenodd;clip-rule:evenodd;stroke-linejoin:round;stroke-miterlimit:1.41421;"><g><path d="M316.39,13.53c-2.4,3.93 -2.84,7.21 -1.31,14.85c5.46,27.3 0.87,54.6 -15.51,91.51c-20.53,46.52 -25.77,60.5 -29.48,78.84c-4.37,21.62 -3.28,53.07 2.4,72.07c5.24,17.91 25.55,72.72 27.95,75.78c3.71,4.8 14.41,3.49 17.04,-2.18c1.97,-4.15 0,-11.36 -10.7,-41.28c-25.55,-70.1 -24.68,-88.89 6.77,-160.3c9.17,-20.53 18.35,-43.68 20.31,-51.32c5.24,-18.56 5.68,-65.52 0.87,-75.13c-4.37,-8.52 -13.54,-10.05 -18.34,-2.84Z" style="fill-rule:nonzero;stroke:#000;stroke-width:19px;"/><path d="M445.24,12.88c-3.28,3.71 -3.49,5.68 -1.09,18.78c5.02,29.48 -0.22,53.73 -23.15,104.83c-7.43,16.82 -15.94,37.35 -18.56,45.86c-5.9,19.22 -8.08,53.73 -4.59,74.25c2.62,15.07 26.86,84.74 31.23,89.98c3.93,4.8 14.63,3.49 17.25,-2.18c1.75,-4.15 0,-10.92 -10.05,-38.66c-15.29,-41.71 -18.56,-55.47 -18.56,-77.53c0,-22.28 4.15,-39.09 15.51,-64.86c32.1,-72.94 37.56,-93.69 32.98,-129.29c-1.75,-14.2 -3.49,-20.53 -6.33,-22.5c-5.25,-3.93 -10.27,-3.49 -14.64,1.32Z" style="fill-rule:nonzero;stroke:#000;stroke-width:19px;"/><path d="M574.31,12.66c-3.28,3.49 -3.5,6.12 -1.31,21.62c4.59,31.67 0,49.36 -30.58,118.81c-13.54,30.36 -17.69,48.48 -17.69,76.44c0,24.9 4.15,42.8 19.87,84.95c11.36,31.01 16.38,38.22 24.24,35.16c8.95,-3.28 8.3,-8.74 -4.8,-45.21c-15.94,-43.9 -18.35,-55.91 -17.03,-84.52c1.31,-24.46 4.15,-33.63 28.83,-89.54c6.77,-15.51 13.98,-34.51 15.94,-42.59c3.71,-15.72 4.8,-50.89 2.18,-64.21c-2.84,-13.97 -12.23,-19.21 -19.65,-10.91Z" style="fill-rule:nonzero;stroke:#000;stroke-width:19px;"/><path d="M15.44,408.61c-5.68,3.28 -6.77,13.98 -3.93,45.86c6.11,75.35 23.8,138.9 57.87,208.35c36.03,73.6 86.27,138.68 150.69,195.02l15.29,13.54l-94.35,0c-91.73,0 -94.78,0.22 -98.93,4.37c-2.4,2.4 -4.37,5.46 -4.37,6.99c0,4.8 19.87,36.25 32.32,51.1c16.38,19.44 34.73,34.29 54.38,43.68c30.36,14.63 18.78,14.2 307.06,13.54l260.33,-0.66l14.2,-5.02c38.22,-13.76 68.36,-39.97 93.47,-81.24c11.79,-19.44 12.67,-22.71 7.21,-28.17c-4.58,-4.59 -6.77,-4.59 -99.59,-4.59l-95.22,0l15.94,-13.54c22.28,-18.78 60.28,-57.87 78.84,-81.02c14.85,-18.56 15.72,-19.22 17.69,-14.41c4.58,11.35 14.85,25.55 19.22,26.64c2.62,0.66 6.33,0.44 8.3,-0.65c6.77,-3.49 6.55,-10.26 -0.66,-21.18c-7.64,-12.01 -10.48,-31.23 -5.9,-42.15c3.71,-8.74 15.5,-18.78 25.55,-21.84c4.59,-1.31 26.42,-3.28 48.7,-4.59c65.74,-3.5 94.78,-10.48 122.96,-29.05c46.08,-30.58 60.5,-90.2 34.94,-143.27c-12.01,-24.46 -35.82,-41.06 -69.01,-47.61c-21.18,-4.15 -43.9,-1.53 -63.55,6.99c-10.7,4.8 -12.23,5.02 -11.35,1.75c2.4,-7.86 5.46,-68.58 3.49,-73.38c-1.09,-2.84 -3.49,-5.68 -5.46,-6.55c-6.33,-2.41 -811.98,-1.32 -816.13,1.09Zm800.19,35.81c-4.37,102.64 -46.96,215.34 -114.44,304c-34.72,45.86 -93.25,102.65 -119.68,116.62l-9.83,5.24l-142.83,0.66c-121.21,0.44 -144.58,0 -153.97,-2.62c-14.2,-4.15 -39.53,-24.24 -73.38,-58.09c-87.13,-87.14 -142.38,-192.19 -162.47,-309.03c-4.15,-23.37 -8.3,-68.58 -6.55,-71.2c0.65,-1.09 174.5,-1.75 392.45,-1.53l391.36,0.66l-0.66,15.29Zm86.92,53.51c25.12,4.8 46.95,20.09 57,39.75c24.24,47.39 5.9,98.49 -44.11,121.65c-21.18,10.04 -36.91,13.32 -75.13,15.72c-19.22,1.09 -42.59,2.84 -51.76,3.71c-9.39,0.87 -17.03,1.53 -17.03,1.31c0,0 5.24,-11.36 11.79,-25.12c15.5,-32.76 25.77,-60.93 36.04,-98.5c7.21,-25.77 9.61,-31.67 15.94,-38.22c9.83,-10.26 18.34,-15.29 32.54,-19c14.41,-3.92 19.87,-4.14 34.72,-1.3Zm-123.61,397.91c-18.35,31.45 -44.33,54.6 -74.69,66.83l-14.63,5.9l-265.35,0l-265.35,0l-14.2,-5.46c-19.22,-7.64 -36.69,-19.44 -51.1,-35.16c-11.36,-12.23 -25.33,-30.79 -25.33,-33.42c0,-0.66 160.3,-1.31 356.2,-1.31c284.13,0 355.76,0.65 354.45,2.62Z" style="fill-rule:nonzero;stroke:#000;stroke-width:19px;"/></g></svg>